<svg aria-hidden="true" style="width:0;height:0;position:absolute;overflow:hidden" xmlns="http://www.w3.org/2000/svg"><defs><symbol id="icon-ps" viewBox="0 0 32 32"><path style="fill:var(--color1,#000)" d="M1.335 1.359h29.363V30.43H1.335V1.359z"/><path fill="#31c5f0" style="fill:var(--color2,#31c5f0)" d="M1.335 1.359h29.363V30.43H1.335V1.359zM0 31.789h32.026V0H0v31.789zm21.597-18.743c-1.053 0-1.412.542-1.412.993 0 .49.237.83 1.656 1.574 2.092 1.032 2.747 2.025 2.747 3.476 0 2.175-1.63 3.345-3.832 3.345-1.162 0-2.163-.242-2.734-.581-.096-.039-.109-.111-.109-.216v-2.006c0-.137.064-.176.16-.111a4.914 4.914 0 0 0 2.683.804c1.053 0 1.495-.451 1.495-1.058 0-.49-.308-.921-1.656-1.633-1.893-.921-2.683-1.855-2.683-3.423 0-1.751 1.348-3.208 3.684-3.208 1.149 0 1.951.176 2.388.379.109.065.135.176.135.274v1.862c0 .111-.064.176-.199.137-.59-.379-1.457-.608-2.323-.608zM10.121 14.66c.308.026.546.026 1.078.026 1.56 0 3.029-.555 3.029-2.718 0-1.725-1.053-2.594-2.83-2.594-.533 0-1.04.026-1.284.039l.006 5.246zM7.74 7.447c0-.098.186-.163.295-.163a81.861 81.861 0 0 1 3.44-.065c3.697 0 5.141 2.064 5.141 4.697 0 3.449-2.458 4.932-5.475 4.932-.507 0-.68-.026-1.04-.026v5.213c0 .111-.039.163-.16.163H7.9c-.109 0-.16-.039-.16-.163V7.447z"/></symbol><symbol id="icon-figma" viewBox="0 0 21 32"><path fill="#0acf83" style="fill:var(--color3,#0acf83)" d="M5.41 31.997c2.89 0 5.235-2.387 5.235-5.331v-5.331H5.41c-2.89 0-5.235 2.387-5.235 5.331s2.344 5.331 5.235 5.331z"/><path fill="#a259ff" style="fill:var(--color4,#a259ff)" d="M.175 15.998c0-2.943 2.344-5.331 5.235-5.331h5.235v10.668H5.41C2.52 21.328.175 18.941.175 15.998z"/><path fill="#f24e1e" style="fill:var(--color5,#f24e1e)" d="M.175 5.331C.175 2.388 2.519 0 5.41 0h5.235v10.668H5.41c-2.89 0-5.235-2.394-5.235-5.337z"/><path fill="#ff7262" style="fill:var(--color6,#ff7262)" d="M10.651 0h5.235c2.89 0 5.235 2.387 5.235 5.331s-2.344 5.331-5.235 5.331h-5.235V.001z"/><path fill="#1abcfe" style="fill:var(--color7,#1abcfe)" d="M21.12 15.998c0 2.943-2.344 5.331-5.235 5.331s-5.235-2.387-5.235-5.331c0-2.943 2.344-5.331 5.235-5.331s5.235 2.387 5.235 5.331z"/></symbol><symbol id="icon-Group-10" viewBox="0 0 32 32"><path d="M15.643 0C7.024 0 0 7.184 0 15.999s7.024 15.999 15.643 15.999 15.643-7.184 15.643-15.999S24.262 0 15.643 0zm0 2.461c3.144 0 6.017 1.115 8.28 2.984-1.151 1.446-3.264 3.454-6.806 4.769-1.925-3.561-3.535-5.838-4.655-7.346a13.108 13.108 0 0 1 3.181-.408zm-5.565 1.27c.94 1.238 2.64 3.569 4.663 7.215-5.197 1.392-9.89 1.485-11.845 1.423 1.045-3.846 3.693-6.992 7.182-8.638zm15.576 3.423a13.693 13.693 0 0 1 3.143 10.338c-.436-.062-.76-.115-1.316-.162a31.117 31.117 0 0 0-7.002.262 58.799 58.799 0 0 0-2.256-5.177c3.715-1.454 6.069-3.6 7.431-5.261zm-9.77 6.022a59.01 59.01 0 0 1 2.181 4.907c-3.166.961-6.047 3.154-8.258 5.192a40.31 40.31 0 0 0-2.873 2.915 13.619 13.619 0 0 1-4.535-10.184c0-.408.03-.792.06-1.185 1.715.069 7.197.123 13.425-1.646zm7.964 6.538c1.85-.069 3.309.062 4.467.192a13.451 13.451 0 0 1-5.22 7.292 47.357 47.357 0 0 0-1.76-7.253 30.539 30.539 0 0 1 2.512-.231zm-4.918.677a43.32 43.32 0 0 1 1.918 8.061 13.004 13.004 0 0 1-11.958-.807 38.332 38.332 0 0 1 2.52-2.546c2.128-1.954 4.904-3.946 7.521-4.708z"/></symbol><symbol id="icon-behance" viewBox="0 0 32 32"><path stroke-width=".39" d="M26.72.169H4.586C2.057.169 0 2.22 0 4.742v22.073c0 2.522 2.057 4.573 4.586 4.573H26.72c2.529 0 4.586-2.052 4.586-4.573V4.742c0-2.522-2.057-4.573-4.586-4.573zm2.752 26.647a2.75 2.75 0 0 1-2.752 2.744H4.586a2.751 2.751 0 0 1-2.752-2.744V4.743a2.75 2.75 0 0 1 2.752-2.744H26.72a2.751 2.751 0 0 1 2.752 2.744v22.073z"/><path stroke-width=".39" d="M14.736 13.035a3.669 3.669 0 0 0-3.669-3.659H5.564v12.805h5.503a3.668 3.668 0 0 0 3.669-3.659 3.647 3.647 0 0 0-1.246-2.744 3.647 3.647 0 0 0 1.246-2.744zm-1.834 5.488a1.833 1.833 0 0 1-1.834 1.829H7.399v-3.659h3.669c1.011 0 1.834.821 1.834 1.829zm-5.503-3.659v-3.659h3.669c1.011 0 1.834.821 1.834 1.829s-.823 1.829-1.834 1.829H7.399zm13.757-1.829c-2.529 0-4.586 2.051-4.586 4.573s2.057 4.573 4.586 4.573a4.605 4.605 0 0 0 3.972-2.286l-1.588-.916a2.755 2.755 0 0 1-4.978-.456h7.18v-.915c0-2.522-2.057-4.573-4.586-4.573zm-2.594 3.659a2.755 2.755 0 0 1 5.188 0h-5.189zm-1.075-7.317h7.337v1.829h-7.337V9.377z"/></symbol><symbol id="icon-cross" viewBox="0 0 32 32"><path d="m3.738 0 26.928 26.928-3.738 3.738L0 3.738 3.738 0z"/><path d="M1.157 27.209 28.085.281l3.738 3.738L4.895 30.947l-3.738-3.738z"/></symbol><symbol id="icon-burger" viewBox="6 6 20 20"><path d="M0 6.303h32v3.721H0V6.303zm0 7.441h32v3.721H0v-3.721zm0 7.444h32v3.721H0v-3.721z"/></symbol><symbol id="icon-nodejs" viewBox="0 0 32 32"><path fill="#539e43" style="fill:var(--color9,#539e43)" d="M15.819 25.756a.64.64 0 0 1-.303-.079l-.961-.571c-.145-.079-.072-.108-.029-.123.195-.065.231-.079.433-.195.022-.015.051-.007.072.007l.737.441c.029.014.065.014.087 0l2.882-1.669c.029-.014.043-.043.043-.079v-3.33c0-.036-.015-.065-.043-.079l-2.882-1.661c-.029-.015-.065-.015-.087 0l-2.882 1.661c-.029.014-.043.051-.043.079v3.33c0 .029.014.065.043.079l.787.455c.426.217.693-.036.693-.289v-3.287c0-.043.036-.087.087-.087h.368c.043 0 .087.036.087.087v3.287c0 .571-.311.903-.852.903-.166 0-.296 0-.665-.181l-.758-.433a.609.609 0 0 1-.303-.527v-3.33a.61.61 0 0 1 .303-.527l2.882-1.669a.646.646 0 0 1 .607 0l2.882 1.669a.609.609 0 0 1 .303.527v3.33a.61.61 0 0 1-.303.527l-2.882 1.669a.744.744 0 0 1-.303.065zm.889-2.29c-1.264 0-1.524-.578-1.524-1.069 0-.043.036-.087.087-.087h.376c.043 0 .079.029.079.072.058.383.224.571.99.571.607 0 .867-.137.867-.462 0-.188-.072-.325-1.019-.419-.787-.079-1.279-.253-1.279-.881 0-.585.491-.932 1.315-.932.925 0 1.38.318 1.438 1.011a.113.113 0 0 1-.022.065c-.015.014-.036.029-.058.029h-.376a.084.084 0 0 1-.079-.065c-.087-.397-.311-.527-.903-.527-.665 0-.744.231-.744.404 0 .209.094.274.99.39.889.116 1.308.282 1.308.903-.007.636-.527.997-1.445.997z"/><path fill="#333" style="fill:var(--color10,#333)" d="M6.877 12.732a.367.367 0 0 0-.188-.318l-3.063-1.762a.458.458 0 0 0-.166-.051h-.029a.34.34 0 0 0-.166.051L.202 12.414a.367.367 0 0 0-.188.318l.007 4.739c0 .065.036.13.094.159.058.036.13.036.181 0l1.82-1.04a.367.367 0 0 0 .188-.318v-2.218c0-.13.072-.253.188-.318l.773-.448c.058-.036.123-.051.188-.051s.13.014.181.051l.773.448a.367.367 0 0 1 .188.318v2.218c0 .13.072.253.188.318l1.82 1.04c.058.036.13.036.188 0a.18.18 0 0 0 .094-.159l-.007-4.739zm14.721-6.523a.199.199 0 0 0-.181 0 .188.188 0 0 0-.094.159v4.695a.14.14 0 0 1-.065.116.136.136 0 0 1-.13 0l-.766-.441a.367.367 0 0 0-.37.001l.002-.001-3.063 1.77a.367.367 0 0 0-.188.318v3.532c0 .13.072.253.188.318l3.063 1.77a.367.367 0 0 0 .37-.001l-.002.001 3.063-1.77a.367.367 0 0 0 .188-.318V7.553a.37.37 0 0 0-.188-.325L21.597 6.21zm-.281 8.986c0 .036-.014.065-.043.079l-1.047.607c-.014.007-.03.011-.047.011s-.033-.004-.048-.011h.001l-1.047-.607c-.029-.014-.043-.051-.043-.079v-1.214c0-.036.014-.065.043-.079l1.047-.607c.014-.007.03-.011.047-.011s.033.004.048.011h-.001l1.047.607c.029.014.043.051.043.079v1.214zm10.474-1.242a.36.36 0 0 0 .181-.318v-.86a.376.376 0 0 0-.181-.318l-3.041-1.762a.367.367 0 0 0-.37.001l.002-.001-3.063 1.77a.367.367 0 0 0-.188.318v3.532c0 .13.072.253.188.318l3.041 1.734a.358.358 0 0 0 .361 0l1.842-1.026c.058-.029.094-.094.094-.159s-.036-.13-.094-.159l-3.077-1.77a.188.188 0 0 1-.094-.159v-1.105a.18.18 0 0 1 .094-.159l.961-.549a.181.181 0 0 1 .189 0h-.001l.961.549a.188.188 0 0 1 .094.159v.867c0 .065.036.13.094.159.058.036.13.036.188 0l1.82-1.062z"/><path fill="#539e43" style="fill:var(--color9,#539e43)" d="M28.518 13.787a.064.064 0 0 1 .072 0l.585.339a.074.074 0 0 1 .036.065v.679a.074.074 0 0 1-.036.065l-.585.339a.064.064 0 0 1-.072 0l-.585-.339a.074.074 0 0 1-.036-.065v-.679c0-.029.014-.051.036-.065l.585-.339z"/><path style="fill:var(--color1,#000)" d="M11.998 10.709a.367.367 0 0 0-.37.001l.002-.001-3.041 1.755a.36.36 0 0 0-.181.318V16.3c0 .13.072.253.181.318l3.041 1.755a.367.367 0 0 0 .37-.001l-.002.001 3.041-1.755a.36.36 0 0 0 .181-.318v-3.518a.376.376 0 0 0-.181-.318l-3.041-1.755z"/><path style="fill:var(--color1,#000)" d="M15.046 12.465 11.99 10.71a.481.481 0 0 0-.09-.035l-.004-.001-3.424 5.865a.406.406 0 0 0 .099.086l.002.001 3.056 1.755a.35.35 0 0 0 .282.036l3.215-5.88a.384.384 0 0 0-.079-.072zm-3.517-2.399-.043.022h.058l-.014-.022z"/><path style="fill:var(--color1,#000)" d="M15.054 16.618a.411.411 0 0 0 .181-.231l-3.352-5.721a.371.371 0 0 0-.26.043l-3.034 1.748 3.272 5.967a.51.51 0 0 0 .14-.045l-.003.001 3.056-1.762zm.281-.058-.022-.036v.051l.022-.014z"/><path style="fill:var(--color1,#000)" d="m15.054 16.618-3.048 1.755a.42.42 0 0 1-.135.043h-.002l.058.108 3.381-1.957v-.043l-.087-.145a.332.332 0 0 1-.166.238z"/><path style="fill:var(--color1,#000)" d="m15.054 16.618-3.048 1.755a.42.42 0 0 1-.135.043h-.002l.058.108 3.381-1.957v-.043l-.087-.145a.332.332 0 0 1-.166.238z"/></symbol><symbol id="icon-react-native" viewBox="0 0 32 32"><path fill="#61dafb" style="fill:var(--color11,#61dafb)" d="M26.47 14.889c0-1.399-1.752-2.725-4.438-3.547.62-2.737.344-4.915-.869-5.613a1.883 1.883 0 0 0-.964-.241v.96c.198 0 .357.039.491.112.585.336.839 1.614.641 3.258-.047.405-.125.831-.219 1.265a20.765 20.765 0 0 0-2.733-.469 21.034 21.034 0 0 0-1.791-2.152c1.403-1.304 2.72-2.019 3.616-2.019v-.96c-1.184 0-2.733.844-4.3 2.307-1.567-1.455-3.116-2.29-4.3-2.29v.96c.891 0 2.212.71 3.616 2.006a20.407 20.407 0 0 0-1.778 2.148c-.973.103-1.894.263-2.737.473-.099-.43-.172-.848-.224-1.248-.202-1.644.047-2.923.629-3.263a.962.962 0 0 1 .495-.112v-.96c-.362 0-.689.077-.973.241-1.21.697-1.481 2.871-.857 5.6-2.677.826-4.42 2.148-4.42 3.542 0 1.399 1.752 2.725 4.438 3.547-.62 2.738-.344 4.915.87 5.613.28.164.607.241.968.241 1.184 0 2.733-.844 4.3-2.307 1.567 1.455 3.116 2.29 4.3 2.29.361 0 .689-.077.973-.241 1.209-.697 1.481-2.871.857-5.6 2.669-.822 4.412-2.148 4.412-3.542zm-5.604-2.871a19.214 19.214 0 0 1-.581 1.7 23.33 23.33 0 0 0-1.184-2.04c.611.09 1.201.202 1.765.34zm-1.972 4.584c-.336.581-.68 1.132-1.037 1.644a22.37 22.37 0 0 1-3.883.004 22.383 22.383 0 0 1-1.937-3.349 23.079 23.079 0 0 1 1.928-3.361 22.37 22.37 0 0 1 3.883-.004 22.383 22.383 0 0 1 1.937 3.349 23.93 23.93 0 0 1-.891 1.717zm1.391-.56c.184.432.386 1.001.56 1.582l.034.131c-.564.138-1.158.254-1.773.344a23.218 23.218 0 0 0 1.179-2.057zm-4.365 4.593c-.4-.413-.801-.874-1.197-1.377.387.017.783.03 1.184.03.405 0 .805-.009 1.197-.03-.392.507-.779.956-1.189 1.383l.006-.006zm-3.202-2.536a19.229 19.229 0 0 1-1.765-.34c.159-.555.357-1.128.581-1.7.177.344.362.689.564 1.033s.409.68.62 1.007zm3.181-8.957c.4.413.801.874 1.197 1.377-.387-.017-.783-.03-1.184-.03-.405 0-.805.009-1.197.03.392-.507.779-.956 1.189-1.383l-.006.006zm-3.185 2.536a23.218 23.218 0 0 0-1.18 2.053 15.94 15.94 0 0 1-.56-1.583l-.034-.13c.564-.133 1.158-.25 1.773-.34zm-3.896 5.388c-1.524-.65-2.509-1.502-2.509-2.178s.986-1.532 2.509-2.178c.37-.159.775-.301 1.192-.435.245.844.568 1.722.968 2.621a20.377 20.377 0 0 0-.956 2.608c-.426-.134-.831-.28-1.205-.439zm2.316 6.151c-.585-.336-.839-1.614-.641-3.258.047-.405.125-.831.219-1.265.844.207 1.765.366 2.733.469a21.034 21.034 0 0 0 1.791 2.152c-1.403 1.304-2.72 2.019-3.616 2.019a1.023 1.023 0 0 1-.486-.116zm10.21-3.28c.202 1.644-.047 2.923-.628 3.263a.962.962 0 0 1-.495.112c-.891 0-2.212-.71-3.616-2.006a20.407 20.407 0 0 0 1.778-2.148 20.164 20.164 0 0 0 2.737-.473c.099.435.177.852.224 1.253zm1.657-2.871c-.37.159-.775.301-1.192.435a20.603 20.603 0 0 0-.968-2.621c.396-.895.715-1.769.956-2.608.426.133.831.28 1.21.439 1.524.65 2.509 1.502 2.509 2.178-.004.676-.99 1.532-2.514 2.178z"/><path fill="#61dafb" style="fill:var(--color11,#61dafb)" d="M15.907 16.856a1.967 1.967 0 1 0 0-3.935 1.967 1.967 0 0 0 0 3.935zm-9.595 10.82h-.649v1.118h-.366V26.03h.915c.311 0 .551.071.718.213.168.142.253.348.253.619a.74.74 0 0 1-.141.45.827.827 0 0 1-.387.287l.649 1.173v.023h-.391zm-.649-.298h.56a.627.627 0 0 0 .431-.141.472.472 0 0 0 .161-.376c0-.171-.051-.302-.154-.393-.101-.091-.248-.137-.44-.139h-.558zm2.829 1.454a.902.902 0 0 1-.68-.273c-.175-.184-.262-.428-.262-.735v-.065c0-.204.039-.385.116-.545a.904.904 0 0 1 .327-.376.823.823 0 0 1 .456-.137c.267 0 .475.088.623.264s.222.428.222.756v.146H7.902a.736.736 0 0 0 .177.492.562.562 0 0 0 .433.186c.124 0 .229-.025.315-.076s.161-.118.226-.201l.215.167c-.172.265-.43.397-.775.397zm-.044-1.842a.466.466 0 0 0-.357.156.745.745 0 0 0-.178.433h1.029v-.027c-.01-.178-.058-.316-.144-.414a.44.44 0 0 0-.349-.148zm2.522 1.804a.734.734 0 0 1-.049-.216.781.781 0 0 1-.585.254.729.729 0 0 1-.499-.171.56.56 0 0 1-.194-.437c0-.214.081-.38.243-.497.163-.119.392-.179.687-.179h.342v-.161a.391.391 0 0 0-.11-.292c-.073-.073-.182-.11-.325-.11-.125 0-.23.032-.315.095s-.127.14-.127.23h-.353c0-.102.036-.201.108-.296a.752.752 0 0 1 .296-.228.998.998 0 0 1 .412-.084c.237 0 .422.059.556.179.134.118.204.28.209.488v.946c0 .189.024.339.072.45v.03zm-.583-.268c.11 0 .215-.029.313-.085s.17-.131.215-.222v-.421h-.275c-.43 0-.646.126-.646.378 0 .11.037.196.11.258s.168.093.283.093zm2.253.019c.125 0 .235-.038.329-.114s.146-.171.156-.285h.332c-.006.118-.047.23-.122.336s-.175.191-.3.254a.862.862 0 0 1-.395.095c-.28 0-.502-.093-.668-.279-.165-.187-.247-.443-.247-.767v-.059c0-.2.037-.378.11-.534s.178-.277.315-.363a.904.904 0 0 1 .488-.129c.23 0 .422.069.573.207a.738.738 0 0 1 .245.537h-.332a.48.48 0 0 0-.486-.456.493.493 0 0 0-.416.194c-.097.128-.146.313-.146.556v.066c0 .237.049.419.146.547s.237.192.418.192zm1.688-2.303v.497h.384v.271h-.384v1.274c0 .082.017.144.051.186.034.041.092.061.175.061.04 0 .096-.008.167-.023v.285a1.028 1.028 0 0 1-.27.038c-.157 0-.275-.048-.355-.142s-.12-.23-.12-.404v-1.274h-.374v-.271h.374v-.497zm3.94 2.552h-.366l-1.392-2.13v2.13h-.366V26.03h.366l1.395 2.14v-2.14h.363zm1.861 0a.734.734 0 0 1-.049-.216.781.781 0 0 1-.585.254.729.729 0 0 1-.499-.171.56.56 0 0 1-.194-.437c0-.214.081-.38.243-.497.163-.119.392-.179.687-.179h.342v-.161a.391.391 0 0 0-.11-.292c-.073-.073-.182-.11-.325-.11-.125 0-.23.032-.315.095s-.127.14-.127.23h-.353c0-.102.036-.201.108-.296a.752.752 0 0 1 .296-.228.998.998 0 0 1 .412-.084c.237 0 .422.059.556.179.134.118.204.28.209.488v.946c0 .189.024.339.072.45v.03zm-.583-.268c.11 0 .215-.029.313-.085s.17-.131.215-.222v-.421h-.275c-.43 0-.646.126-.646.378 0 .11.037.196.11.258s.168.093.283.093zm1.906-2.284v.497h.384v.271h-.384v1.274c0 .082.017.144.051.186.034.041.092.061.175.061.04 0 .096-.008.167-.023v.285a1.034 1.034 0 0 1-.27.038c-.157 0-.275-.048-.355-.142s-.12-.23-.12-.404v-1.274h-.374v-.271h.374v-.497zm1.177 2.552h-.351V26.74h.351zm-.38-2.599c0-.057.017-.105.051-.144.035-.039.087-.059.156-.059s.12.02.156.059.053.087.053.144c0 .057-.018.104-.053.142s-.087.057-.156.057c-.068 0-.12-.019-.156-.057a.205.205 0 0 1-.051-.142zm1.622 2.122.509-1.578h.359l-.737 2.054h-.268l-.744-2.054h.359zm2.031.515a.902.902 0 0 1-.68-.273c-.175-.184-.262-.428-.262-.735v-.065c0-.204.039-.385.116-.545a.904.904 0 0 1 .327-.376.823.823 0 0 1 .456-.137c.267 0 .475.088.623.264s.222.428.222.756v.146h-1.392a.736.736 0 0 0 .177.492.562.562 0 0 0 .433.186c.124 0 .229-.025.315-.076s.161-.118.226-.201l.215.167c-.172.265-.43.397-.775.397zm-.044-1.842a.466.466 0 0 0-.357.156.745.745 0 0 0-.178.433h1.029v-.027c-.01-.178-.058-.316-.144-.414a.44.44 0 0 0-.349-.148z"/></symbol><symbol id="icon-react" viewBox="0 0 28 32"><path fill="#61dafb" style="fill:var(--color11,#61dafb)" d="M28.083 16.003c0-1.86-2.33-3.623-5.902-4.717.824-3.641.458-6.537-1.156-7.464-.372-.218-.807-.321-1.282-.321v1.276c.263 0 .475.052.653.149.779.447 1.116 2.147.853 4.333a17.61 17.61 0 0 1-.292 1.683 27.64 27.64 0 0 0-3.635-.624 27.913 27.913 0 0 0-2.381-2.862c1.866-1.734 3.618-2.685 4.808-2.685V3.495c-1.574 0-3.635 1.122-5.719 3.068-2.084-1.935-4.144-3.045-5.719-3.045v1.276c1.185 0 2.942.944 4.808 2.667a26.99 26.99 0 0 0-2.364 2.856 26.591 26.591 0 0 0-3.641.63 17.259 17.259 0 0 1-.298-1.66c-.269-2.187.063-3.887.836-4.339.172-.103.395-.149.658-.149V3.523c-.481 0-.916.103-1.294.321-1.609.927-1.969 3.818-1.139 7.447-3.561 1.099-5.879 2.856-5.879 4.711 0 1.86 2.33 3.623 5.902 4.717-.824 3.641-.458 6.537 1.156 7.464.372.218.807.321 1.288.321 1.574 0 3.635-1.122 5.719-3.068 2.084 1.935 4.144 3.045 5.719 3.045.481 0 .916-.103 1.294-.321 1.609-.927 1.969-3.818 1.139-7.447 3.549-1.093 5.867-2.856 5.867-4.711zm-7.453-3.818a25.75 25.75 0 0 1-.773 2.261 31.06 31.06 0 0 0-1.574-2.713c.813.12 1.597.269 2.347.452zm-2.621 6.096a30.504 30.504 0 0 1-1.38 2.187 29.945 29.945 0 0 1-5.163.005A29.999 29.999 0 0 1 8.89 16.02a30.504 30.504 0 0 1 2.565-4.471 29.945 29.945 0 0 1 5.163-.005 29.999 29.999 0 0 1 2.576 4.453 32.378 32.378 0 0 1-1.185 2.284zm1.848-.744c.309.767.572 1.534.79 2.278-.75.183-1.54.338-2.358.458.28-.441.561-.893.824-1.357.263-.458.509-.922.744-1.38zm-5.804 6.108a23.582 23.582 0 0 1-1.591-1.832c.515.023 1.042.04 1.574.04.538 0 1.07-.011 1.591-.04a22.47 22.47 0 0 1-1.574 1.832zm-4.259-3.372a25.818 25.818 0 0 1-2.347-.452c.212-.738.475-1.5.773-2.261.235.458.481.916.75 1.374s.544.904.824 1.339zm4.23-11.912c.532.55 1.065 1.162 1.591 1.832a35.28 35.28 0 0 0-1.574-.04c-.538 0-1.07.011-1.591.04a22.47 22.47 0 0 1 1.574-1.832zm-4.236 3.372a31.745 31.745 0 0 0-1.568 2.731 24.712 24.712 0 0 1-.79-2.278 27.94 27.94 0 0 1 2.358-.452zm-5.18 7.166c-2.026-.864-3.337-1.998-3.337-2.896s1.311-2.038 3.337-2.896c.492-.212 1.03-.401 1.586-.578a27.48 27.48 0 0 0 1.288 3.486 27.152 27.152 0 0 0-1.271 3.469 17.172 17.172 0 0 1-1.603-.584zm3.08 8.18c-.779-.447-1.116-2.147-.853-4.333a17.61 17.61 0 0 1 .292-1.683 27.64 27.64 0 0 0 3.635.624 27.913 27.913 0 0 0 2.381 2.862c-1.866 1.734-3.618 2.685-4.808 2.685a1.361 1.361 0 0 1-.647-.155zm13.578-4.362c.269 2.187-.063 3.887-.836 4.339-.172.103-.395.149-.658.149-1.185 0-2.942-.945-4.808-2.668a26.99 26.99 0 0 0 2.364-2.856 26.591 26.591 0 0 0 3.641-.63c.132.578.235 1.133.298 1.666zm2.203-3.818c-.492.212-1.03.401-1.586.578a27.48 27.48 0 0 0-1.288-3.486c.527-1.191.95-2.353 1.271-3.469.567.177 1.105.372 1.609.584 2.026.864 3.337 1.998 3.337 2.896-.006.899-1.317 2.038-3.343 2.896z"/><path fill="#61dafb" style="fill:var(--color11,#61dafb)" d="M16.652 16.003a2.616 2.616 0 1 1-5.231 0 2.616 2.616 0 0 1 5.231 0z"/></symbol><symbol id="icon-bem" viewBox="0 0 32 32"><path fill="#010101" style="fill:var(--color12,#010101)" d="M18.292 25.727h13.604v3.918H18.292v-3.918z"/><path fill="#f7b334" style="fill:var(--color13,#f7b334)" d="M16.259 25.727v-7.118H9.867v7.118h6.392z"/><path fill="#010101" style="fill:var(--color12,#010101)" d="M13.506 10.021H8.261L4.262 2.25H.033v23.477H9.9v-7.118h8.359v-3.853c0-2.678-1.934-4.735-4.753-4.735zm1.573 6.368h-1.442l-1.639-.359v-.359h3.081v.718z"/></symbol><symbol id="icon-sass" viewBox="0 0 32 32"><path fill="#cf649a" style="fill:var(--color14,#cf649a)" d="M27.538 17.788a6.59 6.59 0 0 0-2.9.675c-.3-.594-.6-1.113-.65-1.5-.056-.45-.125-.725-.056-1.262s.381-1.3.381-1.363c-.006-.056-.069-.331-.712-.338s-1.2.125-1.262.294-.188.556-.269.956c-.113.588-1.288 2.669-1.956 3.763-.219-.425-.406-.8-.444-1.1-.056-.45-.125-.725-.056-1.262s.381-1.3.381-1.363c-.006-.056-.069-.331-.712-.338s-1.2.125-1.262.294-.131.569-.269.956c-.131.387-1.694 3.863-2.1 4.769-.206.462-.387.831-.519 1.081s-.006.019-.019.044l-.175.331v.006c-.088.156-.181.306-.225.306-.031 0-.094-.419.012-.994.231-1.206.794-3.087.788-3.156 0-.031.106-.363-.363-.531-.456-.169-.619.113-.656.113s-.069.1-.069.1.506-2.119-.969-2.119c-.925 0-2.2 1.006-2.831 1.925-.4.219-1.25.681-2.15 1.175-.344.188-.7.387-1.037.569l-.069-.075c-1.788-1.906-5.094-3.256-4.956-5.819.05-.931.375-3.388 6.35-6.362 4.894-2.438 8.813-1.769 9.494-.281.969 2.125-2.094 6.075-7.181 6.644-1.938.219-2.956-.531-3.213-.813-.269-.294-.306-.306-.406-.25-.162.088-.063.35 0 .506.15.394.775 1.094 1.838 1.444.931.306 3.206.475 5.956-.588 3.081-1.194 5.488-4.506 4.781-7.275-.719-2.819-5.394-3.744-9.813-2.175-2.631.938-5.481 2.4-7.531 4.319C.251 11.369-.136 13.356.026 14.182c.569 2.944 4.625 4.862 6.25 6.281l-.225.125c-.813.4-3.906 2.019-4.681 3.731-.875 1.938.137 3.331.813 3.519 2.088.581 4.225-.462 5.381-2.181 1.15-1.719 1.012-3.95.481-4.969l-.019-.038.637-.375c.413-.244.819-.469 1.175-.663-.2.544-.344 1.188-.419 2.125-.088 1.1.363 2.525.956 3.087.262.244.575.25.769.25.688 0 1-.569 1.344-1.25.425-.831.8-1.794.8-1.794s-.469 2.606.813 2.606c.469 0 .938-.606 1.15-.919v.006l.037-.063c.021-.03.046-.069.069-.108l.006-.01v-.012c.188-.325.606-1.069 1.231-2.3.806-1.587 1.581-3.575 1.581-3.575s.075.488.306 1.288c.137.475.437.994.669 1.5-.188.262-.3.413-.3.413l.006.006c-.15.2-.319.413-.494.625-.637.762-1.4 1.631-1.5 1.881-.119.294-.094.512.137.688.169.125.469.15.788.125a3.507 3.507 0 0 0 1.175-.269 4.06 4.06 0 0 0 1.012-.531c.625-.462 1.006-1.119.969-1.994-.019-.481-.175-.956-.369-1.406.056-.081.113-.163.169-.25.988-1.444 1.75-3.031 1.75-3.031s.075.488.306 1.288c.119.406.356.85.569 1.288-.925.756-1.506 1.631-1.706 2.206-.369 1.063-.081 1.544.462 1.656.244.05.594-.063.856-.175a3.881 3.881 0 0 0 1.081-.556c.625-.462 1.225-1.106 1.194-1.975a3.788 3.788 0 0 0-.269-1.169c.788-.325 1.806-.512 3.1-.356 2.781.325 3.331 2.063 3.225 2.788s-.688 1.125-.881 1.25c-.194.119-.256.163-.238.25.025.131.113.125.281.1.231-.038 1.462-.594 1.512-1.931.075-1.719-1.556-3.594-4.45-3.575zm-21.45 7.231c-.919 1.006-2.212 1.387-2.763 1.063-.594-.344-.363-1.825.769-2.894.688-.65 1.581-1.25 2.169-1.619.131-.081.331-.2.569-.344a.624.624 0 0 1 .063-.038c.044-.025.094-.056.144-.087.419 1.525.019 2.863-.95 3.919zm6.718-4.569c-.319.781-.994 2.788-1.4 2.675-.35-.094-.563-1.613-.069-3.113.25-.756.781-1.656 1.094-2.006.506-.563 1.056-.75 1.194-.519.162.3-.619 2.475-.819 2.963zm5.544 2.65c-.137.069-.262.119-.319.081-.044-.025.056-.119.056-.119s.694-.744.969-1.087c.156-.2.344-.431.544-.694v.075c0 .9-.862 1.5-1.25 1.744zm4.275-.975c-.1-.075-.087-.306.25-1.031.131-.288.431-.769.95-1.225.063.188.1.369.094.538-.006 1.125-.806 1.544-1.294 1.719z"/></symbol><symbol id="icon-html" viewBox="0 0 28 32"><path fill="#e34f26" style="fill:var(--color15,#e34f26)" d="M2.301 28.69-.047 0l28.036.058-2.482 28.633-11.43 3.31z"/><path fill="#ef652a" style="fill:var(--color16,#ef652a)" d="M14.077 29.229V2.732l11.545.038-2.059 23.707z"/><path fill="#fff" style="fill:var(--color17,#fff)" d="m22.448 9.352.327-3.502H5.014l.981 10.737h12.257l-.481 4.58-3.925 1.058-3.983-1.154-.212-2.732H6.129l.481 5.58 7.235 2.02 7.293-2.02.981-10.891H9.246L8.88 9.353z"/></symbol><symbol id="icon-css" viewBox="0 0 28 32"><path fill="#1b73ba" style="fill:var(--color18,#1b73ba)" d="M2.301 28.69-.047 0l28.036.058-2.482 28.633-11.43 3.31z"/><path fill="#1c88c7" style="fill:var(--color19,#1c88c7)" d="M14.077 29.229V2.732l11.546.038-2.059 23.707z"/><path fill="#fff" style="fill:var(--color17,#fff)" d="M22.755 6.119H4.994l.481 3.463h8.428l-8.293 3.56.481 3.348H18.31l-.443 4.676-4.137.808-3.752-.962-.289-2.656H6.245l.462 5.523 7.389 2.059 7.081-2.251.904-10.795h-7.486l8.159-3.387z"/></symbol><symbol id="icon-javascript" viewBox="0 0 28 32"><path fill="#e9ca32" style="fill:var(--color20,#e9ca32)" d="M2.301 28.69-.047 0l28.036.058-2.482 28.633-11.43 3.31z"/><path fill="#ffde25" style="fill:var(--color21,#ffde25)" d="M14.077 29.229V2.732l11.545.038-2.059 23.707z"/><path fill="#fff" style="fill:var(--color17,#fff)" d="M12.841 5.879H9.789v17.636l-2.374-.452v-2.374l-2.826-.452v5.313l8.253 2.148zm2.289 0h8.45l-.565 3.38h-4.659v5.547h4.659l-.565 11.196-7.319 1.696v-3.505l4.945-1.696.286-4.635-5.231.757z"/></symbol><symbol id="icon-youtube" viewBox="0 0 45 32"><path fill="#fff" style="fill:var(--color17,#fff)" d="M43.664 5.831c-.486-1.944-2.025-3.484-3.889-3.97C36.291.889 22.518.889 22.518.889s-13.854 0-17.338.972c-1.863.486-3.403 2.025-3.889 3.97C.319 9.234.319 16.526.319 16.526s0 7.211.972 10.694c.486 1.944 2.025 3.403 3.889 3.889C8.664 32 22.518 32 22.518 32s13.773 0 17.257-.891c1.863-.486 3.403-1.944 3.889-3.889.972-3.484.972-10.694.972-10.694s0-7.292-.972-10.694zM17.982 23.088V9.963l11.505 6.563-11.505 6.563z"/></symbol><symbol id="icon-linkedin" viewBox="0 0 32 32"><path d="M31.992 32v-.001H32V20.263c0-5.741-1.236-10.164-7.948-10.164-3.227 0-5.392 1.771-6.276 3.449h-.093v-2.913h-6.364v21.364h6.627V21.42c0-2.785.528-5.479 3.977-5.479 3.399 0 3.449 3.179 3.449 5.657v10.401h6.62zM.528 10.636h6.635V32H.528V10.636zM3.843 0C1.722 0 0 1.721 0 3.843s1.721 3.879 3.843 3.879c2.121 0 3.843-1.757 3.843-3.879A3.846 3.846 0 0 0 3.843 0z"/></symbol><symbol id="icon-instagram" viewBox="0 0 32 32"><path d="M31.969 9.408c-.075-1.7-.35-2.869-.744-3.882a7.806 7.806 0 0 0-1.851-2.838A7.867 7.867 0 0 0 26.542.844C25.523.45 24.36.175 22.66.1 20.947.019 20.403 0 16.059 0s-4.888.019-6.595.094c-1.7.075-2.869.35-3.882.744a7.803 7.803 0 0 0-2.838 1.85A7.867 7.867 0 0 0 .9 5.52C.506 6.539.231 7.702.156 9.402c-.081 1.713-.1 2.257-.1 6.601s.019 4.888.094 6.595c.075 1.7.35 2.869.744 3.882a7.895 7.895 0 0 0 1.85 2.838 7.867 7.867 0 0 0 2.832 1.844c1.019.394 2.182.669 3.882.744 1.706.075 2.25.094 6.595.094s4.888-.019 6.595-.094c1.7-.075 2.869-.35 3.882-.744a8.184 8.184 0 0 0 4.682-4.682c.394-1.019.669-2.182.744-3.882.075-1.707.094-2.251.094-6.595s-.006-4.888-.081-6.595zm-2.882 13.065c-.069 1.563-.331 2.407-.55 2.969a5.31 5.31 0 0 1-3.038 3.038c-.563.219-1.413.481-2.969.55-1.688.075-2.194.094-6.464.094s-4.782-.019-6.464-.094c-1.563-.069-2.407-.331-2.969-.55a4.926 4.926 0 0 1-1.838-1.194 4.974 4.974 0 0 1-1.194-1.838c-.219-.563-.481-1.413-.55-2.969-.075-1.688-.094-2.194-.094-6.464s.019-4.782.094-6.464c.069-1.563.331-2.407.55-2.969a4.868 4.868 0 0 1 1.2-1.838A4.974 4.974 0 0 1 6.639 3.55c.563-.219 1.413-.481 2.969-.55 1.688-.075 2.194-.094 6.464-.094 4.276 0 4.782.019 6.464.094 1.563.069 2.407.331 2.969.55a4.914 4.914 0 0 1 1.838 1.194 4.974 4.974 0 0 1 1.194 1.838c.219.563.481 1.413.55 2.969.075 1.688.094 2.194.094 6.464s-.019 4.77-.094 6.458z"/><path d="M16.059 7.783c-4.538 0-8.22 3.682-8.22 8.22s3.682 8.22 8.22 8.22c4.539 0 8.22-3.682 8.22-8.22s-3.682-8.22-8.22-8.22zm0 13.552a5.333 5.333 0 0 1 0-10.664 5.333 5.333 0 0 1 0 10.664zM26.524 7.458a1.919 1.919 0 1 1-3.838 0 1.919 1.919 0 0 1 3.838 0z"/></symbol><symbol id="icon-facebook" viewBox="0 0 32 32"><path d="M21.329 5.313h2.921V.225C23.746.156 22.013 0 19.994 0c-4.212 0-7.097 2.649-7.097 7.519V12H8.249v5.688h4.648V32h5.699V17.689h4.46l.708-5.688h-5.169V8.082c.001-1.644.444-2.769 2.735-2.769z"/></symbol><symbol id="icon-twitter" viewBox="0 0 32 32"><path d="M32 6.078c-1.19.522-2.458.868-3.78 1.036a6.523 6.523 0 0 0 2.886-3.626 13.11 13.11 0 0 1-4.16 1.588A6.574 6.574 0 0 0 22.154 3c-3.632 0-6.556 2.948-6.556 6.562 0 .52.044 1.02.152 1.496-5.454-.266-10.28-2.88-13.522-6.862a6.605 6.605 0 0 0-.898 3.316 6.57 6.57 0 0 0 2.914 5.452 6.479 6.479 0 0 1-2.964-.808v.072c0 3.188 2.274 5.836 5.256 6.446a6.548 6.548 0 0 1-1.72.216 5.8 5.8 0 0 1-1.242-.112c.85 2.598 3.262 4.508 6.13 4.57a13.182 13.182 0 0 1-8.134 2.798c-.538 0-1.054-.024-1.57-.09A18.469 18.469 0 0 0 10.064 29c12.072 0 18.672-10 18.672-18.668 0-.29-.01-.57-.024-.848A13.087 13.087 0 0 0 32 6.078z"/></symbol><symbol id="icon-stars-1" viewBox="0 0 199 32"><path fill="#070707" style="fill:var(--color1,#070707)" d="M15.162 4.574c.355-1.091 1.898-1.091 2.254 0l2.075 6.37c.159.488.614.818 1.127.818h6.709c1.149 0 1.626 1.471.695 2.145L22.6 17.835a1.186 1.186 0 0 0-.432 1.327l2.072 6.361c.356 1.091-.893 2-1.822 1.327l-5.435-3.938a1.184 1.184 0 0 0-1.391 0l-5.435 3.938c-.93.674-2.178-.235-1.822-1.327l2.072-6.36a1.187 1.187 0 0 0-.431-1.327l-5.422-3.928c-.93-.674-.454-2.145.695-2.145h6.709c.513 0 .968-.33 1.127-.818l2.075-6.37z"/><path fill="#e5e5e5" style="fill:var(--color1,#e5e5e5)" d="M56.759 4.574c.355-1.091 1.898-1.091 2.254 0l2.075 6.37c.159.488.614.818 1.127.818h6.709c1.149 0 1.626 1.471.695 2.145l-5.422 3.928a1.187 1.187 0 0 0-.432 1.327l2.072 6.361c.356 1.091-.893 2-1.822 1.327l-5.435-3.938a1.184 1.184 0 0 0-1.391 0l-5.435 3.938c-.93.674-2.178-.235-1.822-1.327l2.072-6.36a1.186 1.186 0 0 0-.432-1.327l-5.422-3.928c-.93-.674-.453-2.145.695-2.145h6.709c.513 0 .968-.33 1.127-.818l2.075-6.37zM98.355 4.574c.355-1.091 1.898-1.091 2.254 0l2.075 6.37c.159.488.614.818 1.127.818h6.709c1.149 0 1.626 1.471.695 2.145l-5.422 3.928a1.186 1.186 0 0 0-.432 1.327l2.072 6.361c.356 1.091-.893 2-1.822 1.327l-5.435-3.938a1.184 1.184 0 0 0-1.391 0L93.35 26.85c-.929.674-2.178-.235-1.822-1.327l2.072-6.36a1.186 1.186 0 0 0-.432-1.327l-5.422-3.928c-.93-.674-.454-2.145.695-2.145h6.709c.513 0 .968-.33 1.127-.818l2.075-6.37zM139.953 4.574c.354-1.091 1.897-1.091 2.253 0l2.075 6.37c.159.488.614.818 1.127.818h6.709c1.148 0 1.626 1.471.696 2.145l-5.422 3.928a1.184 1.184 0 0 0-.431 1.327l2.072 6.361c.356 1.091-.892 2-1.822 1.327l-5.435-3.938a1.183 1.183 0 0 0-1.39 0l-5.435 3.938c-.929.674-2.177-.235-1.822-1.327l2.072-6.36a1.184 1.184 0 0 0-.431-1.327l-5.422-3.928c-.93-.674-.453-2.145.696-2.145h6.709c.513 0 .967-.33 1.126-.818l2.076-6.37z"/><path fill="#e5e5e5" style="fill:var(--color2,#e5e5e5)" d="M181.549 4.574c.356-1.091 1.897-1.091 2.253 0l2.075 6.37c.16.488.614.818 1.127.818h6.709c1.148 0 1.626 1.471.696 2.145l-5.422 3.928a1.184 1.184 0 0 0-.431 1.327l2.072 6.361c.356 1.091-.892 2-1.822 1.327l-5.435-3.938a1.183 1.183 0 0 0-1.39 0l-5.435 3.938c-.929.674-2.177-.235-1.822-1.327l2.072-6.36a1.184 1.184 0 0 0-.431-1.327l-5.422-3.928c-.93-.674-.453-2.145.696-2.145h6.709c.513 0 .968-.33 1.127-.818l2.075-6.37z"/></symbol><symbol id="icon-stars-2" viewBox="0 0 199 32"><path fill="#070707" style="fill:var(--color1,#070707)" d="M15.162 4.574c.355-1.091 1.898-1.091 2.254 0l2.075 6.37c.159.488.614.818 1.127.818h6.709c1.149 0 1.626 1.471.695 2.145L22.6 17.835a1.186 1.186 0 0 0-.432 1.327l2.072 6.361c.356 1.091-.893 2-1.822 1.327l-5.435-3.938a1.184 1.184 0 0 0-1.391 0l-5.435 3.938c-.93.674-2.178-.235-1.822-1.327l2.072-6.36a1.187 1.187 0 0 0-.431-1.327l-5.422-3.928c-.93-.674-.454-2.145.695-2.145h6.709c.513 0 .968-.33 1.127-.818l2.075-6.37zM56.759 4.574c.355-1.091 1.898-1.091 2.254 0l2.075 6.37c.159.488.614.818 1.127.818h6.709c1.149 0 1.626 1.471.695 2.145l-5.422 3.928a1.187 1.187 0 0 0-.432 1.327l2.072 6.361c.356 1.091-.893 2-1.822 1.327l-5.435-3.938a1.184 1.184 0 0 0-1.391 0l-5.435 3.938c-.93.674-2.178-.235-1.822-1.327l2.072-6.36a1.186 1.186 0 0 0-.432-1.327l-5.422-3.928c-.93-.674-.453-2.145.695-2.145h6.709c.513 0 .968-.33 1.127-.818l2.075-6.37z"/><path fill="#e5e5e5" style="fill:var(--color1,#e5e5e5)" d="M98.355 4.574c.355-1.091 1.898-1.091 2.254 0l2.075 6.37c.159.488.614.818 1.127.818h6.709c1.149 0 1.626 1.471.695 2.145l-5.422 3.928a1.186 1.186 0 0 0-.432 1.327l2.072 6.361c.356 1.091-.893 2-1.822 1.327l-5.435-3.938a1.184 1.184 0 0 0-1.391 0L93.35 26.85c-.929.674-2.178-.235-1.822-1.327l2.072-6.36a1.186 1.186 0 0 0-.432-1.327l-5.422-3.928c-.93-.674-.454-2.145.695-2.145h6.709c.513 0 .968-.33 1.127-.818l2.075-6.37zM139.953 4.574c.354-1.091 1.897-1.091 2.253 0l2.075 6.37c.159.488.614.818 1.127.818h6.709c1.148 0 1.626 1.471.696 2.145l-5.422 3.928a1.184 1.184 0 0 0-.431 1.327l2.072 6.361c.356 1.091-.892 2-1.822 1.327l-5.435-3.938a1.183 1.183 0 0 0-1.39 0l-5.435 3.938c-.929.674-2.177-.235-1.822-1.327l2.072-6.36a1.184 1.184 0 0 0-.431-1.327l-5.422-3.928c-.93-.674-.453-2.145.696-2.145h6.709c.513 0 .967-.33 1.126-.818l2.076-6.37z"/><path fill="#e5e5e5" style="fill:var(--color2,#e5e5e5)" d="M181.549 4.574c.356-1.091 1.897-1.091 2.253 0l2.075 6.37c.16.488.614.818 1.127.818h6.709c1.148 0 1.626 1.471.696 2.145l-5.422 3.928a1.184 1.184 0 0 0-.431 1.327l2.072 6.361c.356 1.091-.892 2-1.822 1.327l-5.435-3.938a1.183 1.183 0 0 0-1.39 0l-5.435 3.938c-.929.674-2.177-.235-1.822-1.327l2.072-6.36a1.184 1.184 0 0 0-.431-1.327l-5.422-3.928c-.93-.674-.453-2.145.696-2.145h6.709c.513 0 .968-.33 1.127-.818l2.075-6.37z"/></symbol><symbol id="icon-stars-3" viewBox="0 0 199 32"><path fill="#070707" style="fill:var(--color1,#070707)" d="M15.162 4.574c.355-1.091 1.898-1.091 2.254 0l2.075 6.37c.159.488.614.818 1.127.818h6.709c1.149 0 1.626 1.471.695 2.145L22.6 17.835a1.186 1.186 0 0 0-.432 1.327l2.072 6.361c.356 1.091-.893 2-1.822 1.327l-5.435-3.938a1.184 1.184 0 0 0-1.391 0l-5.435 3.938c-.93.674-2.178-.235-1.822-1.327l2.072-6.36a1.187 1.187 0 0 0-.431-1.327l-5.422-3.928c-.93-.674-.454-2.145.695-2.145h6.709c.513 0 .968-.33 1.127-.818l2.075-6.37zM56.759 4.574c.355-1.091 1.898-1.091 2.254 0l2.075 6.37c.159.488.614.818 1.127.818h6.709c1.149 0 1.626 1.471.695 2.145l-5.422 3.928a1.187 1.187 0 0 0-.432 1.327l2.072 6.361c.356 1.091-.893 2-1.822 1.327l-5.435-3.938a1.184 1.184 0 0 0-1.391 0l-5.435 3.938c-.93.674-2.178-.235-1.822-1.327l2.072-6.36a1.186 1.186 0 0 0-.432-1.327l-5.422-3.928c-.93-.674-.453-2.145.695-2.145h6.709c.513 0 .968-.33 1.127-.818l2.075-6.37zM98.355 4.574c.355-1.091 1.898-1.091 2.254 0l2.075 6.37c.159.488.614.818 1.127.818h6.709c1.149 0 1.626 1.471.695 2.145l-5.422 3.928a1.186 1.186 0 0 0-.432 1.327l2.072 6.361c.356 1.091-.893 2-1.822 1.327l-5.435-3.938a1.184 1.184 0 0 0-1.391 0L93.35 26.85c-.929.674-2.178-.235-1.822-1.327l2.072-6.36a1.186 1.186 0 0 0-.432-1.327l-5.422-3.928c-.93-.674-.454-2.145.695-2.145h6.709c.513 0 .968-.33 1.127-.818l2.075-6.37z"/><path fill="#e5e5e5" style="fill:var(--color1,#e5e5e5)" d="M139.953 4.574c.354-1.091 1.897-1.091 2.253 0l2.075 6.37c.159.488.614.818 1.127.818h6.709c1.148 0 1.626 1.471.696 2.145l-5.422 3.928a1.184 1.184 0 0 0-.431 1.327l2.072 6.361c.356 1.091-.892 2-1.822 1.327l-5.435-3.938a1.183 1.183 0 0 0-1.39 0l-5.435 3.938c-.929.674-2.177-.235-1.822-1.327l2.072-6.36a1.184 1.184 0 0 0-.431-1.327l-5.422-3.928c-.93-.674-.453-2.145.696-2.145h6.709c.513 0 .967-.33 1.126-.818l2.076-6.37z"/><path fill="#e5e5e5" style="fill:var(--color2,#e5e5e5)" d="M181.549 4.574c.356-1.091 1.897-1.091 2.253 0l2.075 6.37c.16.488.614.818 1.127.818h6.709c1.148 0 1.626 1.471.696 2.145l-5.422 3.928a1.184 1.184 0 0 0-.431 1.327l2.072 6.361c.356 1.091-.892 2-1.822 1.327l-5.435-3.938a1.183 1.183 0 0 0-1.39 0l-5.435 3.938c-.929.674-2.177-.235-1.822-1.327l2.072-6.36a1.184 1.184 0 0 0-.431-1.327l-5.422-3.928c-.93-.674-.453-2.145.696-2.145h6.709c.513 0 .968-.33 1.127-.818l2.075-6.37z"/></symbol><symbol id="icon-stars-4" viewBox="0 0 199 32"><path fill="#070707" style="fill:var(--color1,#070707)" d="M15.162 4.574c.355-1.091 1.898-1.091 2.254 0l2.075 6.37c.159.488.614.818 1.127.818h6.709c1.149 0 1.626 1.471.695 2.145L22.6 17.835a1.186 1.186 0 0 0-.432 1.327l2.072 6.361c.356 1.091-.893 2-1.822 1.327l-5.435-3.938a1.184 1.184 0 0 0-1.391 0l-5.435 3.938c-.93.674-2.178-.235-1.822-1.327l2.072-6.36a1.187 1.187 0 0 0-.431-1.327l-5.422-3.928c-.93-.674-.454-2.145.695-2.145h6.709c.513 0 .968-.33 1.127-.818l2.075-6.37zM56.759 4.574c.355-1.091 1.898-1.091 2.254 0l2.075 6.37c.159.488.614.818 1.127.818h6.709c1.149 0 1.626 1.471.695 2.145l-5.422 3.928a1.187 1.187 0 0 0-.432 1.327l2.072 6.361c.356 1.091-.893 2-1.822 1.327l-5.435-3.938a1.184 1.184 0 0 0-1.391 0l-5.435 3.938c-.93.674-2.178-.235-1.822-1.327l2.072-6.36a1.186 1.186 0 0 0-.432-1.327l-5.422-3.928c-.93-.674-.453-2.145.695-2.145h6.709c.513 0 .968-.33 1.127-.818l2.075-6.37zM98.355 4.574c.355-1.091 1.898-1.091 2.254 0l2.075 6.37c.159.488.614.818 1.127.818h6.709c1.149 0 1.626 1.471.695 2.145l-5.422 3.928a1.186 1.186 0 0 0-.432 1.327l2.072 6.361c.356 1.091-.893 2-1.822 1.327l-5.435-3.938a1.184 1.184 0 0 0-1.391 0L93.35 26.85c-.929.674-2.178-.235-1.822-1.327l2.072-6.36a1.186 1.186 0 0 0-.432-1.327l-5.422-3.928c-.93-.674-.454-2.145.695-2.145h6.709c.513 0 .968-.33 1.127-.818l2.075-6.37zM139.953 4.574c.354-1.091 1.897-1.091 2.253 0l2.075 6.37c.159.488.614.818 1.127.818h6.709c1.148 0 1.626 1.471.696 2.145l-5.422 3.928a1.184 1.184 0 0 0-.431 1.327l2.072 6.361c.356 1.091-.892 2-1.822 1.327l-5.435-3.938a1.183 1.183 0 0 0-1.39 0l-5.435 3.938c-.929.674-2.177-.235-1.822-1.327l2.072-6.36a1.184 1.184 0 0 0-.431-1.327l-5.422-3.928c-.93-.674-.453-2.145.696-2.145h6.709c.513 0 .967-.33 1.126-.818l2.076-6.37z"/><path fill="#e5e5e5" style="fill:var(--color2,#e5e5e5)" d="M181.549 4.574c.356-1.091 1.897-1.091 2.253 0l2.075 6.37c.16.488.614.818 1.127.818h6.709c1.148 0 1.626 1.471.696 2.145l-5.422 3.928a1.184 1.184 0 0 0-.431 1.327l2.072 6.361c.356 1.091-.892 2-1.822 1.327l-5.435-3.938a1.183 1.183 0 0 0-1.39 0l-5.435 3.938c-.929.674-2.177-.235-1.822-1.327l2.072-6.36a1.184 1.184 0 0 0-.431-1.327l-5.422-3.928c-.93-.674-.453-2.145.696-2.145h6.709c.513 0 .968-.33 1.127-.818l2.075-6.37z"/></symbol><symbol id="icon-stars-5" viewBox="0 0 199 32"><path fill="#070707" style="fill:var(--color1,#070707)" d="M15.162 4.574c.355-1.091 1.898-1.091 2.254 0l2.075 6.37c.159.488.614.818 1.127.818h6.709c1.149 0 1.626 1.471.695 2.145L22.6 17.835a1.186 1.186 0 0 0-.432 1.327l2.072 6.361c.356 1.091-.893 2-1.822 1.327l-5.435-3.938a1.184 1.184 0 0 0-1.391 0l-5.435 3.938c-.93.674-2.178-.235-1.822-1.327l2.072-6.36a1.187 1.187 0 0 0-.431-1.327l-5.422-3.928c-.93-.674-.454-2.145.695-2.145h6.709c.513 0 .968-.33 1.127-.818l2.075-6.37zM56.759 4.574c.355-1.091 1.898-1.091 2.254 0l2.075 6.37c.159.488.614.818 1.127.818h6.709c1.149 0 1.626 1.471.695 2.145l-5.422 3.928a1.187 1.187 0 0 0-.432 1.327l2.072 6.361c.356 1.091-.893 2-1.822 1.327l-5.435-3.938a1.184 1.184 0 0 0-1.391 0l-5.435 3.938c-.93.674-2.178-.235-1.822-1.327l2.072-6.36a1.186 1.186 0 0 0-.432-1.327l-5.422-3.928c-.93-.674-.453-2.145.695-2.145h6.709c.513 0 .968-.33 1.127-.818l2.075-6.37zM98.355 4.574c.355-1.091 1.898-1.091 2.254 0l2.075 6.37c.159.488.614.818 1.127.818h6.709c1.149 0 1.626 1.471.695 2.145l-5.422 3.928a1.186 1.186 0 0 0-.432 1.327l2.072 6.361c.356 1.091-.893 2-1.822 1.327l-5.435-3.938a1.184 1.184 0 0 0-1.391 0L93.35 26.85c-.929.674-2.178-.235-1.822-1.327l2.072-6.36a1.186 1.186 0 0 0-.432-1.327l-5.422-3.928c-.93-.674-.454-2.145.695-2.145h6.709c.513 0 .968-.33 1.127-.818l2.075-6.37zM139.953 4.574c.354-1.091 1.897-1.091 2.253 0l2.075 6.37c.159.488.614.818 1.127.818h6.709c1.148 0 1.626 1.471.696 2.145l-5.422 3.928a1.184 1.184 0 0 0-.431 1.327l2.072 6.361c.356 1.091-.892 2-1.822 1.327l-5.435-3.938a1.183 1.183 0 0 0-1.39 0l-5.435 3.938c-.929.674-2.177-.235-1.822-1.327l2.072-6.36a1.184 1.184 0 0 0-.431-1.327l-5.422-3.928c-.93-.674-.453-2.145.696-2.145h6.709c.513 0 .967-.33 1.126-.818l2.076-6.37z"/><path fill="#070707" style="fill:var(--color2,#070707)" d="M181.549 4.574c.356-1.091 1.897-1.091 2.253 0l2.075 6.37c.16.488.614.818 1.127.818h6.709c1.148 0 1.626 1.471.696 2.145l-5.422 3.928a1.184 1.184 0 0 0-.431 1.327l2.072 6.361c.356 1.091-.892 2-1.822 1.327l-5.435-3.938a1.183 1.183 0 0 0-1.39 0l-5.435 3.938c-.929.674-2.177-.235-1.822-1.327l2.072-6.36a1.184 1.184 0 0 0-.431-1.327l-5.422-3.928c-.93-.674-.453-2.145.696-2.145h6.709c.513 0 .968-.33 1.127-.818l2.075-6.37z"/></symbol><symbol id="icon-scroll-to-top" viewBox="-1 -1 35 35"><path d="M14.422.296C9.027.884 4.424 4.03 1.962 8.813 1.175 10.343.67 11.93.374 13.79c-.092.568-.102.859-.102 2.209 0 1.685.044 2.137.335 3.448 1.136 5.074 4.744 9.304 9.566 11.207 1.161.461 2.268.758 3.618.971.568.092.859.102 2.209.102 1.685 0 2.137-.044 3.448-.335 5.074-1.136 9.304-4.744 11.207-9.566.461-1.161.758-2.268.971-3.618.092-.568.102-.859.102-2.209 0-1.685-.044-2.137-.335-3.448a15.821 15.821 0 0 0-5.934-9.173A15.821 15.821 0 0 0 19.447.605C18.252.338 17.704.28 16.218.265c-.762-.01-1.568.005-1.797.029zm3.282 1.234a14.395 14.395 0 0 1 8.59 4.176c2.394 2.389 3.792 5.312 4.205 8.789.073.626.073 2.384 0 3.011-.413 3.477-1.811 6.4-4.205 8.789-1.831 1.835-4.098 3.147-6.531 3.783-1.326.35-2.37.481-3.763.481s-2.438-.131-3.763-.481c-3.355-.879-6.385-3.049-8.342-5.982-1.345-2.01-2.093-4.079-2.394-6.589-.073-.626-.073-2.384 0-3.011.413-3.477 1.811-6.4 4.205-8.789 2.583-2.588 5.88-4.05 9.615-4.268.5-.029 1.772.019 2.384.092z"/><path d="m11.751 15.369-4.249 4.249.427.422.422.427 7.648-7.648 7.648 7.648.422-.427.427-.422-8.498-8.498-4.249 4.249z"/></symbol></defs></svg>